<svg width="24" height="24" viewBox="0 0 24 24" fill="none" xmlns="http://www.w3.org/2000/svg">
<g clip-path="url(#clip0_156_3337)">
<circle cx="12" cy="12" r="12" fill="white"/>
<path d="M17.4679 5H6.53207C6.21794 5 5.92674 5.16624 5.76458 5.43814L3.17152 9.78609C2.91246 10.2205 2.94958 10.7722 3.26445 11.1671L10.8036 20.6234C10.9934 20.8614 11.2812 21 11.5855 21H12H12.4145C12.7188 21 13.0066 20.8614 13.1964 20.6234L20.7356 11.1671C21.0504 10.7722 21.0875 10.2205 20.8285 9.78609L18.2354 5.43814C18.0733 5.16624 17.7821 5 17.4679 5Z" fill="url(#paint0_linear_156_3337)"/>
</g>
<defs>
<linearGradient id="paint0_linear_156_3337" x1="12" y1="5" x2="12" y2="21" gradientUnits="userSpaceOnUse">
<stop stop-color="#FEC361"/>
<stop offset="1" stop-color="#EF5F12"/>
</linearGradient>
<clipPath id="clip0_156_3337">
<rect width="24" height="24" fill="white"/>
</clipPath>
</defs>
</svg>
