<svg width="24" height="24" viewBox="0 0 24 24" fill="none" xmlns="http://www.w3.org/2000/svg">
<g clip-path="url(#clip0_133_3353)">
<path d="M12 24C18.6274 24 24 18.6274 24 12C24 5.37258 18.6274 0 12 0C5.37258 0 0 5.37258 0 12C0 18.6274 5.37258 24 12 24Z" fill="#101010"/>
<path fill-rule="evenodd" clip-rule="evenodd" d="M12 23C18.0751 23 23 18.0751 23 12C23 5.92487 18.0751 1 12 1C5.92487 1 1 5.92487 1 12C1 18.0751 5.92487 23 12 23ZM24 12C24 18.6274 18.6274 24 12 24C5.37258 24 0 18.6274 0 12C0 5.37258 5.37258 0 12 0C18.6274 0 24 5.37258 24 12Z" fill="white"/>
<path fill-rule="evenodd" clip-rule="evenodd" d="M11.6118 3.4239C11.8756 3.28993 12.198 3.39518 12.332 3.65898L18.0742 14.9658L11.9332 20.2192L5.81732 14.5975L11.3768 3.65883C11.4283 3.55759 11.5105 3.47533 11.6118 3.4239ZM11.8543 4.1381L6.6113 14.4541L11.9486 19.3601L17.2721 14.8061L11.8543 4.1381Z" fill="white"/>
<path fill-rule="evenodd" clip-rule="evenodd" d="M15.2458 9.95429L11.8757 11.5722L8.5387 9.95373L8.81923 9.37532L11.8771 10.8584L14.9676 9.37476L15.2458 9.95429Z" fill="white"/>
<path d="M6.38214 14.6626L8.5455 13.5339L10.7668 15.0374L15.5691 13.8539L17.5903 14.971L11.9437 19.7899L6.38214 14.6626Z" fill="white"/>
<path fill-rule="evenodd" clip-rule="evenodd" d="M8.55981 13.2834L10.8083 14.8053L15.5995 13.6245L17.9667 14.9329L11.9382 20.0777L6.01093 14.6133L8.55981 13.2834ZM6.75336 14.7118L11.9492 19.5019L17.2139 15.009L15.5388 14.0832L10.7254 15.2694L8.5312 13.7843L6.75336 14.7118Z" fill="white"/>
<path fill-rule="evenodd" clip-rule="evenodd" d="M11.4395 11.0249L12.0728 11.1354L11.375 15.136L12.2593 19.729L11.6281 19.8505L10.7214 15.1418L11.4395 11.0249Z" fill="white"/>
<path fill-rule="evenodd" clip-rule="evenodd" d="M11.6281 19.8505L10.7326 15.1997L11.3639 15.0781L12.2593 19.729L11.6281 19.8505Z" fill="#101010"/>
<g clip-path="url(#clip1_133_3353)">
<path d="M24 18.24C24 21.4212 21.4212 24 18.24 24C15.0588 24 12.48 21.4212 12.48 18.24C12.48 15.0588 15.0588 12.48 18.24 12.48C21.4212 12.48 24 15.0588 24 18.24Z" fill="url(#paint0_linear_133_3353)"/>
<path d="M21.9784 16.4399H21.6537L21.651 16.5976C21.4921 16.6863 21.2359 16.8603 21.2359 17.3251C21.2359 17.8568 21.5126 18.074 21.651 18.1161V18.6124C21.5106 18.6545 21.2311 18.8596 21.2359 19.3433C21.2407 19.8269 21.5146 20.0641 21.651 20.1223V20.2847H21.9784V20.1223C22.1159 20.0661 22.3909 19.8317 22.3909 19.3433C22.3909 18.8548 22.1159 18.6525 21.9784 18.6124V18.1161C22.1129 18.0539 22.3837 17.8087 22.3909 17.3251C22.3977 16.8697 22.1227 16.6638 21.9784 16.5976V16.4399Z" fill="#2C1A17"/>
<path d="M16.5775 16.7914C16.2232 16.6595 15.7153 16.7365 15.5057 16.7914C15.3206 16.5661 15.0268 16.4666 14.9031 16.445C14.7319 16.4269 14.3492 16.4796 14.1884 16.8348C13.9873 17.2788 14.3852 17.884 14.3894 17.9248C14.3971 17.9991 14.3662 18.0476 14.3247 18.1288C14.3076 18.1624 14.2964 18.1842 14.1031 18.4321C13.9096 18.6803 13.9069 19.0053 13.9297 19.1368C13.9337 19.2815 14.0223 19.6313 14.3449 19.8733C14.6676 20.1153 15.265 20.1177 15.5234 20.0886C15.5855 20.1551 15.7771 20.2875 16.0472 20.2854C16.3173 20.2833 16.5071 20.1533 16.5683 20.0886C17.0336 20.1073 17.4674 20.0377 17.7221 19.8733C17.9408 19.7321 18.058 19.6645 18.1502 19.1368C18.2295 18.6828 17.9258 18.3267 17.7982 18.1723C17.711 18.0669 17.6979 18.0011 17.7194 17.9051C18.0116 17.4717 17.998 17.1048 17.9415 16.954C17.885 16.8032 17.7616 16.6353 17.6494 16.5606C17.4708 16.4417 17.2136 16.4334 17.0157 16.504C16.8574 16.5606 16.6576 16.7192 16.5775 16.7914Z" fill="#2C1A17"/>
<path d="M19.5901 16.4424H19.3215C19.3374 16.6402 19.4415 17.0574 19.7304 17.1441V17.6065C19.5936 17.642 19.3206 17.8304 19.3229 18.2996C19.3254 18.7688 19.4925 19.0169 19.7304 19.1117V19.5839C19.5946 19.637 19.3236 19.8492 19.326 20.2727H19.5883V20.1017C19.5926 20.0291 19.6418 19.933 19.7304 19.8824V19.9963C19.7261 20.0432 19.7537 20.1363 19.8977 20.1341C20.0417 20.1318 20.0618 20.0413 20.0538 19.9963V19.8824C20.1044 19.9119 20.1593 19.9316 20.1986 20.1088V20.2727H20.4672C20.4433 19.8824 20.2985 19.6925 20.0538 19.5839V19.1117C20.2299 19.0582 20.4658 18.8198 20.4658 18.2996C20.4658 17.9219 20.184 17.6401 20.058 17.6065V17.136C20.3359 17.073 20.4457 16.6473 20.4658 16.4424H20.1902V16.6396C20.1902 16.7225 20.1227 16.8055 20.051 16.8407C20.051 16.7549 20.0573 16.7595 20.051 16.7225C20.051 16.6607 20.0004 16.5932 19.8935 16.5932C19.7697 16.5932 19.7318 16.6789 19.7304 16.7225V16.8407C19.6376 16.7971 19.6008 16.7066 19.5901 16.6396V16.4424Z" fill="#2C1A17"/>
<path d="M19.5981 18.1131C19.6002 17.9897 19.6882 17.9181 19.732 17.8977C19.732 17.9869 19.6982 18.1388 19.8951 18.1388C20.0877 18.1388 20.0596 17.9841 20.0596 17.8977C20.1516 17.9391 20.1861 18.0585 20.1918 18.1131V18.581C20.1918 18.7357 20.1037 18.8079 20.0596 18.8176C20.0596 18.7421 20.0849 18.581 19.8951 18.581C19.7052 18.581 19.732 18.7323 19.732 18.8176C19.6221 18.7538 19.5969 18.6333 19.5981 18.581C19.5972 18.4764 19.5959 18.2364 19.5981 18.1131Z" fill="#FA811A"/>
<path d="M21.5172 17.1162C21.5193 16.9929 21.6073 16.9213 21.6511 16.9009C21.6511 16.9901 21.6173 17.142 21.8142 17.142C22.0069 17.142 21.9787 16.9873 21.9787 16.9009C22.0707 16.9422 22.1052 17.0617 22.1109 17.1162V17.5842C22.1109 17.7389 22.0228 17.8111 21.9787 17.8208C21.9787 17.7453 22.0041 17.5842 21.8142 17.5842C21.6244 17.5842 21.6511 17.7354 21.6511 17.8208C21.5413 17.757 21.5161 17.6364 21.5172 17.5842C21.5163 17.4796 21.515 17.2396 21.5172 17.1162Z" fill="#FD7108"/>
<path d="M21.5172 19.0955C21.5193 18.9721 21.6073 18.9005 21.6511 18.8801C21.6511 18.9693 21.6173 19.1212 21.8142 19.1212C22.0069 19.1212 21.9787 18.9665 21.9787 18.8801C22.0707 18.9215 22.1052 19.0409 22.1109 19.0955V19.5634C22.1109 19.7182 22.0228 19.7903 21.9787 19.8C21.9787 19.7245 22.0041 19.5634 21.8142 19.5634C21.6244 19.5634 21.6511 19.7147 21.6511 19.8C21.5413 19.7362 21.5161 19.6157 21.5172 19.5634C21.5163 19.4588 21.515 19.2189 21.5172 19.0955Z" fill="#FD7108"/>
</g>
</g>
<defs>
<linearGradient id="paint0_linear_133_3353" x1="12.3" y1="18.42" x2="24.18" y2="18.42" gradientUnits="userSpaceOnUse">
<stop stop-color="#EDAD5A"/>
<stop offset="1" stop-color="#FC750C"/>
</linearGradient>
<clipPath id="clip0_133_3353">
<rect width="24" height="24" fill="white"/>
</clipPath>
<clipPath id="clip1_133_3353">
<rect width="11.52" height="11.52" fill="white" transform="translate(12.48 12.48)"/>
</clipPath>
</defs>
</svg>
