<svg width="24" height="24" viewBox="0 0 24 24" fill="none" xmlns="http://www.w3.org/2000/svg">
<g clip-path="url(#clip0_202_3367)">
<mask id="mask0_202_3367" style="mask-type:luminance" maskUnits="userSpaceOnUse" x="0" y="0" width="24" height="24">
<path d="M24 0H0V24H24V0Z" fill="white"/>
</mask>
<g mask="url(#mask0_202_3367)">
<path fill-rule="evenodd" clip-rule="evenodd" d="M12 0C18.6279 0 24 5.37211 24 12C24 18.6279 18.6279 24 12 24C5.37211 24 0 18.6279 0 12C0 5.37211 5.37211 0 12 0Z" fill="#F0B90B"/>
<path d="M6.59522 12L6.60387 15.1731L9.30002 16.7596V18.6173L5.02598 16.1106V11.0721L6.59522 12ZM6.59522 8.82691V10.676L5.02502 9.74709V7.89811L6.59522 6.96924L8.17307 7.89811L6.59522 8.82691ZM10.426 7.89811L11.9962 6.96924L13.574 7.89811L11.9962 8.82691L10.426 7.89811Z" fill="white"/>
<path d="M7.7298 14.5154V12.6577L9.3 13.5866V15.4356L7.7298 14.5154ZM10.426 17.425L11.9962 18.3539L13.574 17.425V19.274L11.9962 20.2029L10.426 19.274V17.425ZM15.826 7.89811L17.3962 6.96924L18.974 7.89811V9.74709L17.3962 10.676V8.82691L15.826 7.89811ZM17.3962 15.1731L17.4048 12L18.975 11.0711V16.1096L14.701 18.6164V16.7587L17.3962 15.1731Z" fill="white"/>
<path d="M16.2702 14.5154L14.7 15.4356V13.5866L16.2702 12.6577V14.5154Z" fill="white"/>
<path d="M16.2702 9.48459L16.2788 11.3423L13.575 12.9288V16.1096L12.0048 17.0298L10.4346 16.1096V12.9288L7.73077 11.3423V9.48459L9.30772 8.55579L11.9952 10.15L14.699 8.55579L16.2769 9.48459H16.2702ZM7.7298 6.3125L11.9962 3.79712L16.2702 6.3125L14.7 7.24134L11.9962 5.64711L9.3 7.24134L7.7298 6.3125Z" fill="white"/>
</g>
</g>
<defs>
<clipPath id="clip0_202_3367">
<rect width="24" height="24" fill="white"/>
</clipPath>
</defs>
</svg>
